<?xml version="1.0" encoding="UTF-8" standalone="no"?>
<svg
   xmlns:dc="http://purl.org/dc/elements/1.1/"
   xmlns:cc="http://creativecommons.org/ns#"
   xmlns:rdf="http://www.w3.org/1999/02/22-rdf-syntax-ns#"
   xmlns:svg="http://www.w3.org/2000/svg"
   xmlns="http://www.w3.org/2000/svg"
   xmlns:sodipodi="http://sodipodi.sourceforge.net/DTD/sodipodi-0.dtd"
   xmlns:inkscape="http://www.inkscape.org/namespaces/inkscape"
   inkscape:version="1.0 (4035a4fb49, 2020-05-01)"
   sodipodi:docname="lapis.svg"
   xml:space="preserve"
   width="128px"
   viewBox="0 0 128 128"
   version="1.1"
   style="enable-background:new 0 0 128 128;"
   id="Layer_1"
   height="128px"><metadata
     id="metadata967"><rdf:RDF><cc:Work
         rdf:about=""><dc:format>image/svg+xml</dc:format><dc:type
           rdf:resource="http://purl.org/dc/dcmitype/StillImage" /></cc:Work></rdf:RDF></metadata><defs
     id="defs965" /><sodipodi:namedview
     inkscape:current-layer="Layer_1"
     inkscape:window-maximized="1"
     inkscape:window-y="-8"
     inkscape:window-x="-8"
     inkscape:cy="64"
     inkscape:cx="36.314607"
     inkscape:zoom="6.953125"
     showgrid="false"
     id="namedview963"
     inkscape:window-height="1057"
     inkscape:window-width="2560"
     inkscape:pageshadow="2"
     inkscape:pageopacity="0"
     guidetolerance="10"
     gridtolerance="10"
     objecttolerance="10"
     borderopacity="1"
     bordercolor="#666666"
     pagecolor="#ffffff" /><g
     id="g960"><path
       id="path956"
       style="fill:#2F3435;"
       d="M36.108,110.473l70.436-70.436L87.963,21.457L17.526,91.893c-0.378,0.302-0.671,0.716-0.803,1.22   l-5.476,20.803c-0.01,0.04-0.01,0.082-0.019,0.121c-0.018,0.082-0.029,0.162-0.039,0.247c-0.007,0.075-0.009,0.147-0.009,0.222   c-0.001,0.077,0.001,0.147,0.009,0.225c0.01,0.084,0.021,0.166,0.039,0.246c0.008,0.04,0.008,0.082,0.019,0.121   c0.007,0.029,0.021,0.055,0.031,0.083c0.023,0.078,0.053,0.154,0.086,0.23c0.029,0.067,0.057,0.134,0.09,0.196   c0.037,0.066,0.077,0.127,0.121,0.189c0.041,0.063,0.083,0.126,0.13,0.184c0.047,0.059,0.1,0.109,0.152,0.162   c0.053,0.054,0.105,0.105,0.163,0.152c0.056,0.048,0.119,0.09,0.182,0.131c0.063,0.043,0.124,0.084,0.192,0.12   c0.062,0.033,0.128,0.062,0.195,0.09c0.076,0.033,0.151,0.063,0.23,0.087c0.028,0.009,0.054,0.023,0.083,0.031   c0.04,0.01,0.081,0.01,0.121,0.02c0.081,0.017,0.162,0.028,0.246,0.037c0.077,0.009,0.148,0.011,0.224,0.01   c0.075,0,0.147-0.001,0.223-0.008c0.084-0.011,0.166-0.022,0.247-0.039c0.04-0.01,0.082-0.01,0.121-0.02l20.804-5.475   C35.393,111.146,35.808,110.853,36.108,110.473z M19.651,108.349c-0.535-0.535-1.267-0.746-1.964-0.649l3.183-12.094l11.526,11.525   L20.3,110.313C20.398,109.616,20.188,108.884,19.651,108.349z" /><path
       id="path958"
       style="fill:#2F3435;"
       d="M109.702,36.879l-18.58-18.581l7.117-7.117c0,0,12.656,4.514,18.58,18.582L109.702,36.879z" /></g><path
     id="path969"
     d="m 12.51236,116.46657 c -0.809156,-0.41476 -1.351954,-1.35277 -1.234145,-2.13274 0.114804,-0.76007 5.529783,-21.262842 5.71012,-21.620269 0.08577,-0.169987 16.086222,-16.246076 35.556573,-35.724645 l 35.400634,-35.415577 9.240867,9.240033 9.240871,9.240033 L 71.0833,75.406652 C 51.644114,94.850937 35.557747,110.85638 35.335818,110.9743 c -0.406765,0.21613 -20.71821,5.60369 -21.666423,5.74697 -0.364662,0.0551 -0.694137,-0.0174 -1.157035,-0.2547 z m 13.945827,-7.68345 c 3.2062,-0.83985 5.876524,-1.56971 5.934055,-1.62191 0.05753,-0.0522 -2.512116,-2.71103 -5.710328,-5.90851 -3.861213,-3.86033 -5.840012,-5.743537 -5.889578,-5.605061 -0.154332,0.431159 -3.102448,11.744321 -3.102448,11.905401 0,0.0926 0.145618,0.16973 0.323595,0.17147 0.581677,0.006 1.530366,0.53952 1.832507,1.03117 0.16081,0.26168 0.332217,0.71848 0.380903,1.01511 0.04869,0.29663 0.159018,0.53932 0.245181,0.53932 0.08616,0 2.779913,-0.68715 5.986113,-1.52699 z"
     style="fill:#008000;stroke-width:0.14382" /><path
     id="path971"
     d="m 100.45878,27.470014 -9.203302,-9.204143 3.449789,-3.452037 c 1.897384,-1.89862 3.54285,-3.452036 3.656591,-3.452036 0.411583,0 3.429892,1.5927 5.116792,2.70003 4.19893,2.756293 7.49211,6.002755 10.15192,10.007911 1.10023,1.656728 3.00763,5.198054 3.00763,5.584028 0,0.172479 -6.73525,7.02039 -6.90489,7.02039 -0.0392,0 -4.21272,-4.141864 -9.27453,-9.204143 z"
     style="fill:#008000;stroke-width:0.14382" /><path
     id="path973"
     d="m 12.421954,116.27955 c -0.767771,-0.46023 -1.124594,-1.18231 -1.007262,-2.03834 0.09145,-0.6672 1.755997,-7.10375 4.139582,-16.007131 l 1.442563,-5.388393 4.72399,-4.822843 C 24.319021,85.370279 40.28272,69.366226 57.195716,52.458279 l 30.750898,-30.741721 9.170068,9.170907 9.170068,9.170907 -35.346337,35.334215 C 47.13104,99.193796 35.430012,110.795 35.09142,110.93574 c -1.125376,0.4678 -21.001181,5.70307 -21.644229,5.70108 -0.237303,-7.2e-4 -0.69866,-0.16151 -1.025237,-0.35727 z m 10.648873,-6.55354 c 1.818981,-0.45927 7.647802,-2.00635 9.037038,-2.39861 0.138427,-0.0391 0.251686,-0.16114 0.251686,-0.27124 0,-0.22322 -10.48399,-10.78156 -11.114601,-11.193428 -0.219997,-0.143685 -0.440591,-0.220649 -0.49021,-0.171031 -0.10572,0.105721 -2.885899,10.700759 -3.012463,11.480259 -0.08515,0.52444 -0.08021,0.53079 0.542074,0.69641 0.999579,0.26602 1.523395,0.75167 1.786347,1.6562 0.153289,0.52729 0.303701,0.78554 0.457525,0.78554 0.126038,0 1.27021,-0.26285 2.542604,-0.5841 z"
     style="fill:#008000;stroke-width:0.14382" /><path
     id="path975"
     d="m 12.421954,116.27955 c -0.633207,-0.37957 -1.060156,-1.07851 -1.060156,-1.73554 0,-0.4155 1.211735,-5.14688 3.971886,-15.508737 l 1.643332,-6.169221 3.58334,-3.682465 C 22.531193,87.158233 38.499351,71.149595 56.045152,53.608839 l 31.901458,-31.892285 9.170199,9.171038 9.170201,9.171038 -35.417664,35.400248 -35.417661,35.400252 -1.222472,0.36773 c -1.395814,0.41987 -11.921887,3.23221 -16.981224,4.53701 -1.864617,0.48088 -3.579673,0.87372 -3.811236,0.87297 -0.231562,-7.2e-4 -0.688222,-0.16153 -1.014799,-0.35729 z m 10.597077,-6.54668 c 1.262786,-0.31748 3.856243,-0.99703 5.763239,-1.51011 1.906996,-0.51308 3.492018,-0.93287 3.522272,-0.93287 0.280142,0 -0.383886,-0.76629 -3.073081,-3.54634 -3.317565,-3.42965 -8.137249,-8.103101 -8.356653,-8.103101 -0.07213,0 -0.17319,0.145618 -0.224575,0.323596 -0.440021,1.524063 -2.960345,11.295295 -2.960345,11.477185 0,0.15178 0.215768,0.29834 0.611236,0.41519 1.000686,0.29568 1.510224,0.77601 1.769574,1.66815 0.143305,0.49295 0.307327,0.78554 0.440361,0.78554 0.116598,0 1.245185,-0.25976 2.507972,-0.57724 z"
     style="fill:#00b0b3;stroke-width:0.14382;fill-opacity:1;stroke:#00b0b3;stroke-opacity:1" /><path
     id="path1538"
     d="m 100.49065,27.400539 -9.164807,-9.14392 3.443212,-3.387982 c 3.267274,-3.214865 3.465692,-3.383512 3.883146,-3.300512 0.552663,0.109883 3.501459,1.716217 5.102839,2.779736 4.07885,2.708867 7.74142,6.440643 10.19874,10.391455 1.06356,1.709951 2.64776,4.711544 2.58439,4.896636 -0.0754,0.220251 -6.31147,6.602778 -6.60446,6.759584 -0.24518,0.131216 -1.36788,-0.93821 -9.44306,-8.994997 z"
     style="fill:#00b0b3;fill-opacity:1;stroke:#00b0b3;stroke-width:0.14382;stroke-opacity:1" /></svg>
